<svg width="124" height="48" viewBox="0 0 124 48" fill="none" xmlns="http://www.w3.org/2000/svg">
<path d="M5.61328 39.2695C4.73828 39.2695 3.92969 39.1758 3.1875 38.9883C2.45312 38.8008 1.85547 38.5586 1.39453 38.2617L1.64062 36.6094C2.94531 37.3047 4.22656 37.6523 5.48438 37.6523C7.39062 37.6523 8.37109 36.9805 8.42578 35.6367C8.42578 35.0664 8.22266 34.6172 7.81641 34.2891C7.41016 33.9609 6.61328 33.5938 5.42578 33.1875L4.45312 32.8477C3.32812 32.4727 2.52344 32.0078 2.03906 31.4531C1.5625 30.8984 1.32031 30.207 1.3125 29.3789C1.3125 28.3711 1.71484 27.5352 2.51953 26.8711C3.33203 26.207 4.44141 25.875 5.84766 25.875C7.30078 25.875 8.625 26.1562 9.82031 26.7188L9.24609 28.2188C8.03516 27.7188 6.90234 27.4688 5.84766 27.4688C5.02734 27.4688 4.38281 27.6328 3.91406 27.9609C3.45312 28.2812 3.22266 28.7344 3.22266 29.3203C3.22266 29.8203 3.39062 30.2031 3.72656 30.4688C4.0625 30.7344 4.73438 31.0391 5.74219 31.3828C6 31.4766 6.32422 31.5859 6.71484 31.7109C8.01172 32.1328 8.92969 32.6328 9.46875 33.2109C10.0078 33.7812 10.2773 34.5547 10.2773 35.5312C10.2617 36.7188 9.83594 37.6406 9 38.2969C8.16406 38.9453 7.03516 39.2695 5.61328 39.2695ZM29.2852 39V32.3086C29.2852 31.6836 29.2695 31.1602 29.2383 30.7383C29.2148 30.3164 29.1523 29.8867 29.0508 29.4492C28.957 29.0117 28.8203 28.668 28.6406 28.418C28.4688 28.1602 28.2266 27.9531 27.9141 27.7969C27.6016 27.6328 27.2266 27.5508 26.7891 27.5508C25.9297 27.5508 25.1953 27.7812 24.5859 28.2422C23.9844 28.7031 23.5547 29.3516 23.2969 30.1875C23.2266 30.75 23.1914 31.3516 23.1914 31.9922V39H21.2344V32.0977C21.2344 31.5195 21.2148 31.0195 21.1758 30.5977C21.1367 30.168 21.0625 29.7539 20.9531 29.3555C20.8438 28.9492 20.6953 28.6211 20.5078 28.3711C20.3281 28.1211 20.0859 27.9219 19.7812 27.7734C19.4766 27.625 19.1133 27.5508 18.6914 27.5508C17.7539 27.5508 16.9648 27.7891 16.3242 28.2656C15.6914 28.7422 15.2656 29.375 15.0469 30.1641C14.9766 30.7656 14.9414 31.418 14.9414 32.1211V39H12.9844C12.9688 30.9609 12.9609 26.6758 12.9609 26.1445H14.6016L14.8477 27.9844C15.2383 27.3906 15.793 26.8906 16.5117 26.4844C17.2305 26.0781 18.0469 25.875 18.9609 25.875C19.4375 25.875 19.875 25.9258 20.2734 26.0273C20.6797 26.1211 21.0156 26.2422 21.2812 26.3906C21.5547 26.5391 21.7969 26.7188 22.0078 26.9297C22.2188 27.1328 22.3828 27.3359 22.5 27.5391C22.6172 27.7344 22.7148 27.9414 22.793 28.1602C23.7305 26.6367 25.1641 25.875 27.0938 25.875C28.5234 25.875 29.5703 26.2852 30.2344 27.1055C30.9062 27.918 31.2422 29.125 31.2422 30.7266V39H29.2852ZM37.4648 37.6875C38.3945 37.6875 39.2109 37.4336 39.9141 36.9258C40.625 36.4102 41.082 35.7188 41.2852 34.8516V32.6836C41.2461 32.6836 41.0078 32.7031 40.5703 32.7422C40.1406 32.7812 39.8594 32.8047 39.7266 32.8125C38.0312 32.9609 36.8477 33.2383 36.1758 33.6445C35.5117 34.0508 35.1797 34.7031 35.1797 35.6016C35.1797 36.2891 35.3828 36.8086 35.7891 37.1602C36.1953 37.5117 36.7539 37.6875 37.4648 37.6875ZM41.7188 39C41.6016 38.5 41.4883 37.9609 41.3789 37.3828C40.668 38.0938 40 38.5859 39.375 38.8594C38.75 39.1328 38.0156 39.2695 37.1719 39.2695C35.9688 39.2695 35 38.957 34.2656 38.332C33.5391 37.6992 33.1758 36.793 33.1758 35.6133C33.1758 34.3008 33.6719 33.3281 34.6641 32.6953C35.6641 32.0625 37.1016 31.668 38.9766 31.5117C39.2344 31.4883 39.6211 31.457 40.1367 31.418C40.6602 31.3711 41.0508 31.3359 41.3086 31.3125V30.1758C41.3086 29.2695 41.0977 28.5977 40.6758 28.1602C40.2539 27.7227 39.5898 27.5039 38.6836 27.5039C37.418 27.5039 36.1406 27.8164 34.8516 28.4414C34.8125 28.3477 34.7109 28.0781 34.5469 27.6328C34.3828 27.1797 34.2969 26.9453 34.2891 26.9297C34.8594 26.6094 35.5352 26.3555 36.3164 26.168C37.1055 25.9727 37.9062 25.875 38.7188 25.875C40.3203 25.875 41.4727 26.2266 42.1758 26.9297C42.8867 27.625 43.2422 28.8125 43.2422 30.4922V39H41.7188ZM52.3828 26.0273C52.7344 26.0273 53.0547 26.0508 53.3438 26.0977L53.2734 27.9023C52.9141 27.8398 52.6016 27.8086 52.3359 27.8086C51.2422 27.8086 50.3516 28.1914 49.6641 28.957C48.9844 29.7148 48.6445 30.6562 48.6445 31.7812V39H46.6875C46.6797 31.1094 46.6758 26.8242 46.6758 26.1445H48.3047L48.4922 28.4531C48.9375 27.7266 49.5039 27.1406 50.1914 26.6953C50.8789 26.25 51.6094 26.0273 52.3828 26.0273ZM59.4609 39.2344C58.1953 39.2344 57.2969 38.9258 56.7656 38.3086C56.2344 37.6914 55.9531 36.6953 55.9219 35.3203V27.5977H54.0117L54.0938 26.3086L55.9102 26.1445L56.5781 23.2031L57.8672 23.1562V26.1445H61.4414V27.5977H57.8672V34.9688C57.8672 35.9453 58.0156 36.6328 58.3125 37.0312C58.6094 37.4297 59.1172 37.6289 59.8359 37.6289C60.0938 37.6289 60.6523 37.5664 61.5117 37.4414L61.5938 38.9883C60.6641 39.1523 59.9531 39.2344 59.4609 39.2344Z" fill="#1AB4D6"/>
<path d="M72.3398 39V31.2305C72.3398 29.9414 72.1328 29.0039 71.7188 28.418C71.3125 27.832 70.5977 27.5391 69.5742 27.5391C68.5898 27.5391 67.7578 27.7852 67.0781 28.2773C66.4062 28.7695 65.9688 29.4062 65.7656 30.1875C65.6953 30.7734 65.6602 31.4258 65.6602 32.1445V39H63.7031V21.1523L65.6602 21.0352V26.2617C65.6602 26.707 65.6445 27.2578 65.6133 27.9141C66.7148 26.5547 68.1758 25.875 69.9961 25.875C72.8633 25.875 74.2969 27.5586 74.2969 30.9258V39H72.3398ZM78.1406 32.6016C78.1406 34.125 78.4766 35.3477 79.1484 36.2695C79.8281 37.1836 80.8164 37.6406 82.1133 37.6406C83.3945 37.6406 84.3594 37.1836 85.0078 36.2695C85.6641 35.3555 85.9922 34.125 85.9922 32.5781C85.9922 31.0078 85.668 29.7734 85.0195 28.875C84.3789 27.9688 83.3984 27.5156 82.0781 27.5156C80.7969 27.5156 79.8203 27.9766 79.1484 28.8984C78.4766 29.8203 78.1406 31.0547 78.1406 32.6016ZM88.0195 32.5664C88.0195 34.5586 87.4883 36.1758 86.4258 37.418C85.3633 38.6523 83.8945 39.2695 82.0195 39.2695C80.2148 39.2695 78.7773 38.6445 77.707 37.3945C76.6445 36.1445 76.1133 34.5391 76.1133 32.5781C76.1133 30.5781 76.6484 28.9609 77.7188 27.7266C78.7891 26.4922 80.2578 25.875 82.125 25.875C83.9609 25.875 85.4023 26.4961 86.4492 27.7383C87.4961 28.9727 88.0195 30.582 88.0195 32.5664ZM107.121 39V32.3086C107.121 31.6836 107.105 31.1602 107.074 30.7383C107.051 30.3164 106.988 29.8867 106.887 29.4492C106.793 29.0117 106.656 28.668 106.477 28.418C106.305 28.1602 106.062 27.9531 105.75 27.7969C105.438 27.6328 105.062 27.5508 104.625 27.5508C103.766 27.5508 103.031 27.7812 102.422 28.2422C101.82 28.7031 101.391 29.3516 101.133 30.1875C101.062 30.75 101.027 31.3516 101.027 31.9922V39H99.0703V32.0977C99.0703 31.5195 99.0508 31.0195 99.0117 30.5977C98.9727 30.168 98.8984 29.7539 98.7891 29.3555C98.6797 28.9492 98.5312 28.6211 98.3438 28.3711C98.1641 28.1211 97.9219 27.9219 97.6172 27.7734C97.3125 27.625 96.9492 27.5508 96.5273 27.5508C95.5898 27.5508 94.8008 27.7891 94.1602 28.2656C93.5273 28.7422 93.1016 29.375 92.8828 30.1641C92.8125 30.7656 92.7773 31.418 92.7773 32.1211V39H90.8203C90.8047 30.9609 90.7969 26.6758 90.7969 26.1445H92.4375L92.6836 27.9844C93.0742 27.3906 93.6289 26.8906 94.3477 26.4844C95.0664 26.0781 95.8828 25.875 96.7969 25.875C97.2734 25.875 97.7109 25.9258 98.1094 26.0273C98.5156 26.1211 98.8516 26.2422 99.1172 26.3906C99.3906 26.5391 99.6328 26.7188 99.8438 26.9297C100.055 27.1328 100.219 27.3359 100.336 27.5391C100.453 27.7344 100.551 27.9414 100.629 28.1602C101.566 26.6367 103 25.875 104.93 25.875C106.359 25.875 107.406 26.2852 108.07 27.1055C108.742 27.918 109.078 29.125 109.078 30.7266V39H107.121ZM118.992 28.5234C118.422 27.8359 117.637 27.4922 116.637 27.4922C115.637 27.4922 114.82 27.8477 114.188 28.5586C113.555 29.2617 113.184 30.2266 113.074 31.4531H119.859C119.859 30.1797 119.57 29.2031 118.992 28.5234ZM117.023 39.2695C115.156 39.2695 113.684 38.6758 112.605 37.4883C111.535 36.3008 111 34.6758 111 32.6133C111 30.6211 111.52 29.0078 112.559 27.7734C113.598 26.5312 114.965 25.8984 116.66 25.875C118.254 25.875 119.516 26.4219 120.445 27.5156C121.383 28.6016 121.852 30.0547 121.852 31.875C121.852 31.9688 121.848 32.1406 121.84 32.3906C121.84 32.6406 121.84 32.8203 121.84 32.9297H113.016C113.039 34.3906 113.414 35.5312 114.141 36.3516C114.875 37.1641 115.859 37.5703 117.094 37.5703C118.453 37.5703 119.816 37.2109 121.184 36.4922L121.488 38.0742C120.184 38.8711 118.695 39.2695 117.023 39.2695Z" fill="#464646"/>
<path d="M88 13C100.444 -0.5 112 13 112 13" stroke="#1AB4D6"/>
<path d="M91 16C100.333 4.75 109 16 109 16" stroke="#1AB4D6"/>
<path d="M94 18C100.222 11.25 106 18 106 18" stroke="#1AB4D6"/>
</svg>
