<svg width="24" height="24" viewBox="0 0 24 24" fill="none" xmlns="http://www.w3.org/2000/svg">
<path d="M3.70088 14.619C4.33235 10.3566 7.99103 7.20001 12.3 7.20001C16.609 7.20001 20.2676 10.3566 20.8991 14.619L21.2356 16.8907C21.7437 20.32 19.0864 23.4 15.6196 23.4H8.98038C5.51359 23.4 2.85629 20.32 3.36434 16.8907L3.70088 14.619Z" fill="#6C94A0"/>
<path d="M7.5 1.79999C-nan -nan 12.9 0.599988 12.3 1.79999C11.7 2.99999 17.1 2.09999 17.1 2.09999L17.0362 3.31211C16.9038 5.82796 14.8252 7.79999 12.3059 7.79999C9.78177 7.79999 7.70103 5.82068 7.57499 3.2997L7.5 1.79999Z" fill="#6C94A0"/>
<rect x="9" y="6.59998" width="6.6" height="1.2" fill="#A9C7D5"/>
<path d="M13.5141 17.8224C13.5141 17.499 13.3998 17.2265 13.1713 17.0051C12.9463 16.7836 12.5648 16.5832 12.027 16.4039C11.2781 16.1754 10.7314 15.8783 10.3869 15.5127C10.0459 15.1435 9.87539 14.676 9.87539 14.1099C9.87539 13.5334 10.0424 13.0605 10.3764 12.6914C10.7139 12.3222 11.1762 12.1025 11.7633 12.0322V10.8773H12.549V12.0375C13.1396 12.1183 13.5984 12.3662 13.9254 12.781C14.2559 13.1959 14.4211 13.7636 14.4211 14.4843H13.4508C13.4508 13.9886 13.333 13.5949 13.0975 13.3031C12.8619 13.0113 12.5437 12.8654 12.143 12.8654C11.7246 12.8654 11.4047 12.9744 11.1832 13.1924C10.9617 13.4068 10.851 13.7074 10.851 14.0941C10.851 14.4527 10.967 14.7392 11.199 14.9537C11.4346 15.1646 11.8195 15.358 12.3539 15.5338C12.8918 15.706 13.3102 15.8976 13.609 16.1086C13.9113 16.316 14.1328 16.5586 14.2734 16.8363C14.4176 17.114 14.4896 17.4392 14.4896 17.8119C14.4896 18.406 14.3104 18.8842 13.9518 19.2463C13.5967 19.6084 13.0975 19.8228 12.4541 19.8896V20.8968H11.6736V19.8896C11.0197 19.8299 10.5064 19.5978 10.1338 19.1935C9.76465 18.7857 9.58008 18.2338 9.58008 17.5377H10.5557C10.5557 18.0263 10.684 18.4025 10.9406 18.6662C11.1973 18.9299 11.5611 19.0617 12.0322 19.0617C12.4928 19.0617 12.8549 18.951 13.1186 18.7295C13.3822 18.508 13.5141 18.2056 13.5141 17.8224Z" fill="white"/>
</svg>
