<svg width="24" height="24" viewBox="0 0 24 24" fill="none" xmlns="http://www.w3.org/2000/svg">
<path d="M18.6295 12.3408C18.6673 12.0336 18.6957 11.7264 18.6957 11.4C18.6957 11.0736 18.6673 10.7664 18.6295 10.4592L20.6251 8.87519C20.8048 8.73119 20.8521 8.47199 20.7386 8.26079L18.847 4.93919C18.7335 4.72799 18.4781 4.65119 18.2701 4.72799L15.915 5.68799C15.4232 5.30399 14.8935 4.98719 14.3166 4.74719L13.9572 2.20319C13.9288 1.97279 13.7302 1.79999 13.4937 1.79999H9.71049C9.47404 1.79999 9.27542 1.97279 9.24705 2.20319L8.88764 4.74719C8.3107 4.98719 7.78104 5.31359 7.28922 5.68799L4.93416 4.72799C4.71662 4.64159 4.47071 4.72799 4.35722 4.93919L2.4656 8.26079C2.34264 8.47199 2.39939 8.73119 2.5791 8.87519L4.57475 10.4592C4.53692 10.7664 4.50855 11.0832 4.50855 11.4C4.50855 11.7168 4.53692 12.0336 4.57475 12.3408L2.5791 13.9248C2.39939 14.0688 2.3521 14.328 2.4656 14.5392L4.35722 17.8608C4.47071 18.072 4.72608 18.1488 4.93416 18.072L7.28922 17.112C7.78104 17.496 8.3107 17.8128 8.88764 18.0528L9.24705 20.5968C9.27542 20.8272 9.47404 21 9.71049 21H13.4937C13.7302 21 13.9288 20.8272 13.9572 20.5968L14.3166 18.0528C14.8935 17.8128 16.0082 16.3744 16.5 16L18 17L18.5 17.8608C18.7175 17.9472 18.7335 18.072 18.847 17.8608L20.7386 14.5392C20.8521 14.328 20.8048 14.0688 20.6251 13.9248L18.6295 12.3408ZM11.6021 14.76C9.7767 14.76 8.29178 13.2528 8.29178 11.4C8.29178 9.54719 9.7767 8.03999 11.6021 8.03999C13.4275 8.03999 14.9124 9.54719 14.9124 11.4C14.9124 13.2528 13.4275 14.76 11.6021 14.76Z" fill="#6C94A0"/>
<path d="M20.4675 18.8704C20.4873 18.7168 20.5021 18.5632 20.5021 18.4C20.5021 18.2368 20.4873 18.0832 20.4675 17.9296L21.5087 17.1376C21.6025 17.0656 21.6272 16.936 21.568 16.8304L20.581 15.1696C20.5218 15.064 20.3886 15.0256 20.28 15.064L19.0513 15.544C18.7947 15.352 18.5183 15.1936 18.2173 15.0736L18.0298 13.8016C18.015 13.6864 17.9114 13.6 17.788 13.6H15.8142C15.6908 13.6 15.5872 13.6864 15.5724 13.8016L15.3848 15.0736C15.0838 15.1936 14.8075 15.3568 14.5509 15.544L13.3222 15.064C13.2087 15.0208 13.0804 15.064 13.0211 15.1696L12.0342 16.8304C11.9701 16.936 11.9997 17.0656 12.0934 17.1376L13.1346 17.9296C13.1149 18.0832 13.1001 18.2416 13.1001 18.4C13.1001 18.5584 13.1149 18.7168 13.1346 18.8704L12.0934 19.6624C11.9997 19.7344 11.975 19.864 12.0342 19.9696L13.0211 21.6304C13.0804 21.736 13.2136 21.7744 13.3222 21.736L14.5509 21.256C14.8075 21.448 15.0838 21.6064 15.3848 21.7264L15.5724 22.9984C15.5872 23.1136 15.6908 23.2 15.8142 23.2H17.788C17.9114 23.2 18.015 23.1136 18.0298 22.9984L18.2173 21.7264C18.5183 21.6064 18.7947 21.4432 19.0513 21.256L20.28 21.736C20.3935 21.7792 20.5218 21.736 20.581 21.6304L21.568 19.9696C21.6272 19.864 21.6025 19.7344 21.5087 19.6624L20.4675 18.8704ZM16.8011 20.08C15.8487 20.08 15.074 19.3264 15.074 18.4C15.074 17.4736 15.8487 16.72 16.8011 16.72C17.7535 16.72 18.5282 17.4736 18.5282 18.4C18.5282 19.3264 17.7535 20.08 16.8011 20.08Z" fill="#A9C7D5"/>
</svg>
