<svg width="24" height="24" viewBox="0 0 24 24" fill="none" xmlns="http://www.w3.org/2000/svg">
<path d="M3 18.7143C3 14.1777 6.67766 10.5 11.2143 10.5H12.7857C17.3223 10.5 21 14.1777 21 18.7143C21 20.5289 19.5289 22 17.7143 22H6.28571C4.47106 22 3 20.5289 3 18.7143Z" fill="#00C2FF"/>
<path d="M12 2C9.23858 2 7 4.26119 7 7.05051C7 8.70263 7.28583 10.0786 8.5 11L12 12L15.5 11C16.7142 10.0786 17 8.70263 17 7.05051C17 4.26119 14.7614 2 12 2Z" fill="#81D9FF"/>
<path d="M12 16L8.5 11C11.1236 11.8248 13.1261 11.8418 15.5 11L12 16Z" fill="white"/>
</svg>
